G75*
%MOIN*%
%OFA0B0*%
%FSLAX25Y25*%
%IPPOS*%
%LPD*%
%AMOC8*
5,1,8,0,0,1.08239X$1,22.5*
%
%ADD10R,0.05118X0.05906*%
%ADD11R,0.05118X0.05906*%
%ADD12C,0.06000*%
%ADD13C,0.14000*%
%ADD14R,0.14000X0.14000*%
%ADD15R,0.05906X0.05906*%
%ADD16C,0.05906*%
%ADD17C,0.04000*%
%ADD18C,0.01000*%
%ADD19C,0.10000*%
D10*
X0032760Y0036051D03*
X0040240Y0036051D03*
X0022240Y0072051D03*
X0014760Y0072051D03*
X0024760Y0090051D03*
X0032240Y0090051D03*
D11*
X0205760Y0032051D03*
X0213240Y0032051D03*
D12*
X0032500Y0024051D03*
X0012500Y0024051D03*
X0022500Y0034051D03*
D13*
X0066500Y0028051D03*
X0241000Y0066051D03*
D14*
X0240500Y0046051D03*
X0066500Y0048051D03*
D15*
X0032000Y0082051D03*
D16*
X0022000Y0082051D03*
X0012000Y0082051D03*
D17*
X0029500Y0075051D03*
X0039500Y0078563D03*
X0005551Y0067500D03*
X0012000Y0057551D03*
X0030000Y0056051D03*
X0046500Y0058551D03*
X0098500Y0063051D03*
X0139500Y0064051D03*
X0221000Y0026551D03*
X0040000Y0029051D03*
X0005500Y0021551D03*
D18*
X0007500Y0019551D01*
X0193260Y0019551D01*
X0205760Y0032051D01*
X0213240Y0032051D02*
X0218740Y0026551D01*
X0221000Y0026551D01*
X0139500Y0064051D02*
X0136500Y0067051D01*
X0021500Y0067051D01*
X0012000Y0057551D01*
X0015450Y0056051D02*
X0013450Y0054051D01*
X0009000Y0054051D01*
X0005551Y0057500D01*
X0005551Y0067500D01*
X0010102Y0072051D01*
X0014760Y0072051D01*
X0022240Y0072051D02*
X0025240Y0075051D01*
X0029500Y0075051D01*
X0029500Y0077598D01*
X0016453Y0077598D01*
X0012000Y0082051D01*
X0012000Y0085551D01*
X0016500Y0090051D01*
X0024760Y0090051D01*
X0032240Y0090051D02*
X0032240Y0082291D01*
X0032000Y0082051D01*
X0038535Y0077598D02*
X0039500Y0078563D01*
X0038535Y0077598D02*
X0029500Y0077598D01*
X0046500Y0058551D02*
X0051000Y0063051D01*
X0098500Y0063051D01*
X0046500Y0058551D02*
X0031500Y0058551D01*
X0030000Y0057051D01*
X0030000Y0056051D01*
X0015450Y0056051D01*
X0032760Y0036051D02*
X0032500Y0035791D01*
X0032500Y0024051D01*
X0040000Y0029051D02*
X0040000Y0035811D01*
X0040240Y0036051D01*
X0048240Y0028051D01*
X0066500Y0028051D01*
X0022500Y0034051D02*
X0012500Y0024051D01*
D19*
X0066500Y0048051D02*
X0068500Y0046051D01*
X0240500Y0046051D01*
M02*
