G75*
%MOIN*%
%OFA0B0*%
%FSLAX25Y25*%
%IPPOS*%
%LPD*%
%AMOC8*
5,1,8,0,0,1.08239X$1,22.5*
%
%ADD10R,0.05118X0.05906*%
%ADD11R,0.04724X0.07874*%
%ADD12R,0.06299X0.07087*%
%ADD13R,0.09449X0.12992*%
%ADD14R,0.09449X0.03937*%
%ADD15R,0.09449X0.03937*%
%ADD16R,0.02362X0.08661*%
%ADD17C,0.06000*%
%ADD18C,0.14000*%
%ADD19R,0.14000X0.14000*%
%ADD20R,0.05906X0.05906*%
%ADD21C,0.05906*%
%ADD22C,0.04000*%
%ADD23C,0.01000*%
%ADD24C,0.02000*%
%ADD25C,0.10000*%
D10*
X0098760Y0074051D03*
X0106240Y0074051D03*
X0106240Y0084051D03*
X0098760Y0084051D03*
D11*
X0046500Y0085563D03*
X0046500Y0074539D03*
X0048500Y0049563D03*
X0048500Y0038539D03*
D12*
X0118988Y0074051D03*
X0130012Y0074051D03*
X0130012Y0084051D03*
X0118988Y0084051D03*
D13*
X0081917Y0076051D03*
D14*
X0059083Y0085106D03*
X0059083Y0066996D03*
D15*
X0059083Y0076051D03*
D16*
X0039500Y0067500D03*
X0034500Y0067500D03*
X0029500Y0067500D03*
X0024500Y0067500D03*
X0019500Y0067500D03*
X0014500Y0067500D03*
X0009500Y0067500D03*
X0009500Y0048602D03*
X0014500Y0048602D03*
X0019500Y0048602D03*
X0024500Y0048602D03*
X0029500Y0048602D03*
X0034500Y0048602D03*
X0039500Y0048602D03*
X0081000Y0053500D03*
X0086000Y0053500D03*
X0091000Y0053500D03*
X0096000Y0053500D03*
X0105000Y0053500D03*
X0110000Y0053500D03*
X0115000Y0053500D03*
X0120000Y0053500D03*
X0129000Y0053500D03*
X0134000Y0053500D03*
X0139000Y0053500D03*
X0144000Y0053500D03*
X0154000Y0053500D03*
X0159000Y0053500D03*
X0164000Y0053500D03*
X0169000Y0053500D03*
X0179000Y0053500D03*
X0184000Y0053500D03*
X0189000Y0053500D03*
X0194000Y0053500D03*
X0204000Y0053500D03*
X0209000Y0053500D03*
X0214000Y0053500D03*
X0219000Y0053500D03*
X0219000Y0034602D03*
X0214000Y0034602D03*
X0209000Y0034602D03*
X0204000Y0034602D03*
X0195000Y0034602D03*
X0190000Y0034602D03*
X0185000Y0034602D03*
X0180000Y0034602D03*
X0170000Y0034602D03*
X0165000Y0034602D03*
X0160000Y0034602D03*
X0155000Y0034602D03*
X0145000Y0034602D03*
X0140000Y0034602D03*
X0135000Y0034602D03*
X0130000Y0034602D03*
X0120000Y0034602D03*
X0120000Y0034602D03*
X0115000Y0034602D03*
X0110000Y0034602D03*
X0105000Y0034602D03*
X0096000Y0034602D03*
X0091000Y0034602D03*
X0086000Y0034602D03*
X0081000Y0034602D03*
D17*
X0032500Y0024051D03*
X0012500Y0024051D03*
X0022500Y0034051D03*
D18*
X0066500Y0028051D03*
X0241000Y0066051D03*
D19*
X0240500Y0046051D03*
X0066500Y0048051D03*
D20*
X0032000Y0082051D03*
D21*
X0022000Y0082051D03*
X0012000Y0082051D03*
D22*
X0005500Y0021551D03*
X0040000Y0029051D03*
X0030000Y0056051D03*
X0046500Y0058551D03*
X0012000Y0057551D03*
X0005551Y0067500D03*
X0029500Y0075051D03*
X0039500Y0078563D03*
X0098500Y0063051D03*
X0139500Y0064051D03*
X0221000Y0026551D03*
D23*
X0219000Y0028551D01*
X0219000Y0034602D01*
X0219000Y0040551D01*
X0216000Y0043551D01*
X0099000Y0043551D01*
X0096000Y0040551D01*
X0096000Y0034602D01*
X0120000Y0034602D02*
X0120000Y0043051D01*
X0145000Y0043051D02*
X0145000Y0034602D01*
X0170000Y0034602D02*
X0170000Y0043051D01*
X0195000Y0043051D02*
X0195000Y0034602D01*
X0139500Y0064051D02*
X0139500Y0082551D01*
X0138000Y0084051D01*
X0130012Y0084051D01*
X0130512Y0084551D01*
X0123638Y0088216D02*
X0123638Y0080425D01*
X0130012Y0074051D01*
X0118988Y0074051D02*
X0106240Y0074051D01*
X0098760Y0074051D02*
X0098500Y0073791D01*
X0098500Y0063051D01*
X0098760Y0074051D02*
X0098760Y0084051D01*
X0106240Y0084051D02*
X0118988Y0084051D01*
X0123638Y0088216D02*
X0122759Y0089094D01*
X0054257Y0089094D01*
X0050725Y0085563D01*
X0046500Y0085563D01*
X0039500Y0078563D01*
X0039500Y0067500D01*
X0039500Y0048602D01*
X0034500Y0048602D01*
X0034500Y0034551D01*
X0040000Y0029051D01*
X0032500Y0024051D02*
X0027000Y0029551D01*
X0027000Y0035915D01*
X0024500Y0038415D01*
X0024500Y0048602D01*
X0019500Y0048602D02*
X0019500Y0050559D01*
X0034500Y0065559D01*
X0034500Y0067500D01*
X0034500Y0075051D01*
X0032000Y0077551D01*
X0032000Y0082051D01*
X0022000Y0082051D02*
X0009500Y0069551D01*
X0009500Y0067500D01*
X0005551Y0067500D01*
X0011000Y0061051D02*
X0014500Y0064551D01*
X0014500Y0067500D01*
X0019500Y0067500D02*
X0019500Y0065051D01*
X0012000Y0057551D01*
X0010550Y0061051D02*
X0006050Y0056551D01*
X0006000Y0056551D01*
X0006000Y0021551D01*
X0005500Y0021551D01*
X0009500Y0027051D02*
X0012500Y0024051D01*
X0009500Y0027051D02*
X0009500Y0048602D01*
X0014500Y0048602D02*
X0014500Y0054551D01*
X0024500Y0064551D01*
X0024500Y0067500D01*
X0029500Y0067500D02*
X0029500Y0075051D01*
X0046500Y0074539D02*
X0046500Y0066551D01*
X0058638Y0066551D01*
X0059083Y0066996D01*
X0046500Y0066551D02*
X0046500Y0058551D01*
X0030000Y0056051D02*
X0029500Y0055551D01*
X0029500Y0048602D01*
X0048500Y0049563D02*
X0050012Y0048051D01*
X0066500Y0048051D01*
X0066500Y0085051D01*
X0059138Y0085051D01*
X0059083Y0085106D01*
X0056012Y0076051D02*
X0046500Y0085563D01*
X0056012Y0076051D02*
X0059083Y0076051D01*
X0011000Y0061051D02*
X0010550Y0061051D01*
X0048500Y0038539D02*
X0056012Y0038539D01*
X0066500Y0028051D01*
D24*
X0081000Y0023051D02*
X0081000Y0034602D01*
X0086000Y0034602D02*
X0086000Y0028051D01*
X0081000Y0023051D01*
X0090500Y0023051D02*
X0091000Y0023551D01*
X0091000Y0034602D01*
X0105000Y0034602D02*
X0105000Y0023551D01*
X0105500Y0023051D01*
X0110000Y0027551D01*
X0110000Y0034602D01*
X0115000Y0034602D02*
X0115000Y0023051D01*
X0114500Y0023051D02*
X0115000Y0023551D01*
X0130000Y0023551D02*
X0130000Y0034602D01*
X0135000Y0034602D02*
X0135000Y0027551D01*
X0130500Y0023051D01*
X0138500Y0023051D02*
X0139000Y0023551D01*
X0140000Y0023051D02*
X0140000Y0034602D01*
X0155000Y0034602D02*
X0155000Y0023551D01*
X0155500Y0023051D02*
X0160000Y0027551D01*
X0160000Y0034602D01*
X0165000Y0034602D02*
X0165000Y0023051D01*
X0164500Y0023551D02*
X0164000Y0023051D01*
X0180000Y0023551D02*
X0180000Y0034602D01*
X0185000Y0034602D02*
X0185000Y0027551D01*
X0180500Y0023051D01*
X0189000Y0023051D02*
X0189500Y0023551D01*
X0190000Y0023051D02*
X0190000Y0034602D01*
X0204000Y0034602D02*
X0204000Y0023051D01*
X0209000Y0025551D02*
X0209000Y0034602D01*
X0214000Y0034602D02*
X0214000Y0025551D01*
X0211500Y0023051D01*
X0209000Y0025551D01*
D25*
X0211500Y0023051D02*
X0204000Y0023051D01*
X0190000Y0023051D01*
X0191500Y0023051D02*
X0184000Y0023051D01*
X0176500Y0023051D01*
X0162500Y0023051D01*
X0164000Y0023051D02*
X0156500Y0023051D01*
X0149000Y0023051D01*
X0135000Y0023051D01*
X0136500Y0023051D02*
X0129000Y0023051D01*
X0115000Y0023051D01*
X0105500Y0023051D01*
X0090500Y0023051D01*
X0081000Y0023051D01*
X0083000Y0023051D02*
X0077500Y0023051D01*
X0075500Y0023051D02*
X0070500Y0028051D01*
X0066500Y0028051D01*
X0081000Y0053500D02*
X0086000Y0053500D01*
X0091000Y0053500D01*
X0096000Y0053500D01*
X0105000Y0053500D01*
X0110000Y0053500D01*
X0115000Y0053500D01*
X0120000Y0053500D01*
X0129000Y0053500D01*
X0134000Y0053500D01*
X0139000Y0053500D01*
X0144000Y0053500D01*
X0142500Y0053500D02*
X0151500Y0053500D01*
X0156500Y0053500D01*
X0161500Y0053500D01*
X0166500Y0053500D01*
X0165000Y0053500D02*
X0174000Y0053500D01*
X0179000Y0053500D01*
X0184000Y0053500D01*
X0189000Y0053500D01*
X0194000Y0053500D01*
X0192500Y0053500D02*
X0201500Y0053500D01*
X0206500Y0053500D01*
X0211500Y0053500D01*
X0216500Y0053500D01*
X0221500Y0053500D01*
X0234051Y0066051D01*
X0238500Y0066051D01*
M02*
