G75*
%MOIN*%
%OFA0B0*%
%FSLAX25Y25*%
%IPPOS*%
%LPD*%
%AMOC8*
5,1,8,0,0,1.08239X$1,22.5*
%
%ADD10R,0.05918X0.06706*%
%ADD11R,0.05524X0.08674*%
%ADD12R,0.07099X0.07887*%
%ADD13R,0.10249X0.13792*%
%ADD14R,0.10249X0.04737*%
%ADD15R,0.10249X0.04737*%
%ADD16R,0.03162X0.09461*%
%ADD17C,0.06800*%
%ADD18C,0.14800*%
%ADD19R,0.14800X0.14800*%
%ADD20R,0.06706X0.06706*%
%ADD21C,0.06706*%
%ADD22C,0.04800*%
D10*
X0098760Y0074051D03*
X0106240Y0074051D03*
X0106240Y0084051D03*
X0098760Y0084051D03*
D11*
X0046500Y0085563D03*
X0046500Y0074539D03*
X0048500Y0049563D03*
X0048500Y0038539D03*
D12*
X0118988Y0074051D03*
X0130012Y0074051D03*
X0130012Y0084051D03*
X0118988Y0084051D03*
D13*
X0081917Y0076051D03*
D14*
X0059083Y0085106D03*
X0059083Y0066996D03*
D15*
X0059083Y0076051D03*
D16*
X0039500Y0067500D03*
X0034500Y0067500D03*
X0029500Y0067500D03*
X0024500Y0067500D03*
X0019500Y0067500D03*
X0014500Y0067500D03*
X0009500Y0067500D03*
X0009500Y0048602D03*
X0014500Y0048602D03*
X0019500Y0048602D03*
X0024500Y0048602D03*
X0029500Y0048602D03*
X0034500Y0048602D03*
X0039500Y0048602D03*
X0081000Y0053500D03*
X0086000Y0053500D03*
X0091000Y0053500D03*
X0096000Y0053500D03*
X0105000Y0053500D03*
X0110000Y0053500D03*
X0115000Y0053500D03*
X0120000Y0053500D03*
X0129000Y0053500D03*
X0134000Y0053500D03*
X0139000Y0053500D03*
X0144000Y0053500D03*
X0154000Y0053500D03*
X0159000Y0053500D03*
X0164000Y0053500D03*
X0169000Y0053500D03*
X0179000Y0053500D03*
X0184000Y0053500D03*
X0189000Y0053500D03*
X0194000Y0053500D03*
X0204000Y0053500D03*
X0209000Y0053500D03*
X0214000Y0053500D03*
X0219000Y0053500D03*
X0219000Y0034602D03*
X0214000Y0034602D03*
X0209000Y0034602D03*
X0204000Y0034602D03*
X0195000Y0034602D03*
X0190000Y0034602D03*
X0185000Y0034602D03*
X0180000Y0034602D03*
X0170000Y0034602D03*
X0165000Y0034602D03*
X0160000Y0034602D03*
X0155000Y0034602D03*
X0145000Y0034602D03*
X0140000Y0034602D03*
X0135000Y0034602D03*
X0130000Y0034602D03*
X0120000Y0034602D03*
X0115000Y0034602D03*
X0110000Y0034602D03*
X0105000Y0034602D03*
X0096000Y0034602D03*
X0091000Y0034602D03*
X0086000Y0034602D03*
X0081000Y0034602D03*
D17*
X0032500Y0024051D03*
X0012500Y0024051D03*
X0022500Y0034051D03*
D18*
X0066500Y0028051D03*
X0241000Y0066051D03*
D19*
X0240500Y0046051D03*
X0066500Y0048051D03*
D20*
X0032000Y0082051D03*
D21*
X0022000Y0082051D03*
X0012000Y0082051D03*
D22*
X0005500Y0021551D03*
X0040000Y0029051D03*
X0030000Y0056051D03*
X0046500Y0058551D03*
X0012000Y0057551D03*
X0005551Y0067500D03*
X0029500Y0075051D03*
X0039500Y0078563D03*
X0098500Y0063051D03*
X0139500Y0064051D03*
X0221000Y0026551D03*
M02*
